<svg width="56" height="55" viewBox="0 0 56 55" fill="none" xmlns="http://www.w3.org/2000/svg">
<path d="M8.91064 0.858032H47.8041C51.9462 0.858032 55.3041 4.2159 55.3041 8.35803V46.3279C55.3041 50.4701 51.9462 53.8279 47.8041 53.8279H8.91065C4.76851 53.8279 1.41064 50.4701 1.41064 46.3279V8.35804C1.41064 4.2159 4.76851 0.858032 8.91064 0.858032Z" stroke="#B22626"/>
<path d="M39.4198 34.7114C38.6846 34.067 38.0409 33.3283 37.5062 32.5151C36.9223 31.3927 36.5724 30.1668 36.4769 28.9096V25.2067C36.4819 23.232 35.7534 21.3235 34.4281 19.8397C33.1028 18.3559 31.2721 17.3989 29.2798 17.1487V16.1817C29.2798 15.9163 29.1725 15.6618 28.9816 15.4741C28.7908 15.2865 28.5319 15.181 28.2619 15.181C27.992 15.181 27.7331 15.2865 27.5422 15.4741C27.3514 15.6618 27.2441 15.9163 27.2441 16.1817V17.1637C25.2697 17.432 23.461 18.3947 22.1532 19.8735C20.8453 21.3523 20.1268 23.247 20.1308 25.2067V28.9096C20.0354 30.1668 19.6854 31.3927 19.1016 32.5151C18.5762 33.3264 17.9429 34.0651 17.2184 34.7114C17.1371 34.7816 17.0719 34.8681 17.0272 34.965C16.9826 35.062 16.9594 35.1671 16.9592 35.2736V36.293C16.9592 36.4918 17.0396 36.6825 17.1825 36.823C17.3255 36.9636 17.5194 37.0426 17.7216 37.0426H38.9166C39.1188 37.0426 39.3127 36.9636 39.4557 36.823C39.5987 36.6825 39.679 36.4918 39.679 36.293V35.2736C39.6789 35.1671 39.6557 35.062 39.611 34.965C39.5663 34.8681 39.5011 34.7816 39.4198 34.7114ZM18.545 35.5434C19.2544 34.8697 19.8789 34.1147 20.4053 33.2947C21.1407 31.939 21.5698 30.4433 21.6633 28.9096V25.2067C21.6331 24.3282 21.7829 23.4527 22.104 22.6324C22.4251 21.812 22.9108 21.0636 23.5321 20.4316C24.1535 19.7997 24.8979 19.2971 25.721 18.9539C26.544 18.6107 27.4289 18.4338 28.3229 18.4338C29.217 18.4338 30.1018 18.6107 30.9249 18.9539C31.7479 19.2971 32.4923 19.7997 33.1137 20.4316C33.7351 21.0636 34.2208 21.812 34.5419 22.6324C34.8629 23.4527 35.0128 24.3282 34.9826 25.2067V28.9096C35.076 30.4433 35.5051 31.939 36.2406 33.2947C36.7669 34.1147 37.3915 34.8697 38.1008 35.5434H18.545Z" fill="#B22626"/>
<path d="M28.357 39.5461C28.8372 39.5352 29.2981 39.3577 29.6581 39.0449C30.0181 38.7322 30.2539 38.3043 30.324 37.837H26.3137C26.3857 38.317 26.6327 38.7549 27.0085 39.0693C27.3844 39.3837 27.8636 39.5531 28.357 39.5461V39.5461Z" fill="#B22626"/>
</svg>
